# xmcd
#
# Track frame offsets:
#	183
#	14048
#	26403
#	41933
#	72163
#	91305
#	97748
#	108248
#	126855
#	151388
#	159565
#	167440
#	182495
#	218353
#	242353
#	256670
#	286470
#
# Disc length: 4321 seconds
#
# Revision: 0
# Processed by: cddbd v1.5.2PL0 Copyright (c) Steve Scherf et al.
# Submitted via: EasyCDDAExtractor 16.0.8.2
#
DISCID=d110df11
DTITLE=Συλλογικός δίσκος - The Classic Experience 2.2
DYEAR=1990
DGENRE=Κλασική
TTITLE0=Άνευ ερμηνευτού - Alla Hornpipe From "Water Music" [Handel]
TTITLE1=Άνευ ερμηνευτού - Summer From "The Four Seasons" [Vivaldi]
TTITLE2=Wofgang Gonnenwein - Sleepers' Wake [Bach]
TTITLE3=Άνευ ερμηνευτού - Shepherd's Hymn From "The Pastoral Symphony" [Beetho
TTITLE3=ven]
TTITLE4=Άνευ ερμηνευτού - The Skaters' Waltz [Waldteufel]
TTITLE5=Άνευ ερμηνευτού - Badinerie From "Suite No. 2" [Bach]
TTITLE6=Nikolai Gedda - La Donna e Mobile From "Rigoletto" [Verdi]
TTITLE7=Άνευ ερμηνευτού - Rondo From "A Musical Joke" [Mozart]
TTITLE8=Άνευ ερμηνευτού - Daybreak From "Daphme And Chloe" [Ravel]
TTITLE9=Άνευ ερμηνευτού - Symphony No.6, First Movement [Vaughan Williams]
TTITLE10=Άνευ ερμηνευτού - Sunrise From "Also Sprach Zarathustra" [Richard Str
TTITLE10=auss]
TTITLE11=Άνευ ερμηνευτού - Prelude To Act III of "Lohengrin" [Wagner]
TTITLE12=Άνευ ερμηνευτού - Jupiter From "The Planets" [Holst]
TTITLE13=Άνευ ερμηνευτού - Romeo And Juliet [Tchaikovsky]
TTITLE14=Άνευ ερμηνευτού - The Thieving Magpie [Rossini]
TTITLE15=Άνευ ερμηνευτού - Excerpts From The Pathhtique and Manfred Symphonies
TTITLE15=[Tchaikovsky]
TTITLE16=Άνευ ερμηνευτού - Finlandia [Sibelius]
EXTD=
EXTT0=
EXTT1=
EXTT2=
EXTT3=
EXTT4=
EXTT5=
EXTT6=
EXTT7=
EXTT8=
EXTT9=
EXTT10=
EXTT11=
EXTT12=
EXTT13=
EXTT14=
EXTT15=
EXTT16=
PLAYORDER=
